<svg width="20" height="21" viewBox="0 0 20 21" fill="none" xmlns="http://www.w3.org/2000/svg">
<path d="M15.2078 13.007C14.9193 12.8582 13.518 12.1331 13.253 12.0277C12.994 11.9286 12.7997 11.879 12.6112 12.1765C12.4228 12.4802 11.8753 13.1557 11.7045 13.354C11.5397 13.5524 11.3689 13.5772 11.0863 13.4284C10.7978 13.2797 9.8793 12.9574 8.79005 11.9348C7.94221 11.1353 7.3652 10.156 7.20034 9.85234C7.03548 9.54865 7.18268 9.38751 7.32398 9.23877C7.45352 9.10242 7.6066 8.8855 7.7538 8.71196C7.8951 8.53843 7.94221 8.40827 8.0423 8.20995C8.1365 8.01162 8.0894 7.83189 8.01875 7.68314C7.94809 7.5344 7.37698 6.05315 7.14146 5.45197C6.91184 4.86938 6.67632 4.94376 6.49969 4.93756C6.33483 4.93136 6.14053 4.92516 5.95212 4.92516C5.76371 4.92516 5.45166 4.99954 5.19259 5.30322C4.92764 5.60691 4.19166 6.33204 4.19166 7.81329C4.19166 9.29455 5.21614 10.72 5.35745 10.9245C5.49876 11.1229 7.37109 14.1597 10.2385 15.4613C10.9214 15.7711 11.4513 15.9571 11.8635 16.0934C12.5465 16.3227 13.1706 16.2918 13.6652 16.2112C14.2127 16.1244 15.355 15.4861 15.5905 14.7795C15.826 14.0792 15.826 13.478 15.7553 13.3478C15.6847 13.2239 15.4963 13.1495 15.2078 12.9946V13.007ZM9.99706 20.5C8.29547 20.5 6.62333 20.0166 5.16315 19.1055L4.81577 18.8886L1.21831 19.8802L2.17803 16.1926L1.95429 15.8145C1.00635 14.2217 0.5 12.381 0.5 10.4969C0.5 4.98094 4.76278 0.5 10.0029 0.5C12.5406 0.5 14.9252 1.54121 16.7209 3.43152C18.5167 5.32182 19.5 7.83189 19.5 10.5031C19.5 16.0191 15.2372 20.5 9.99706 20.5Z" stroke="#4CB153"/>
</svg>
