<svg width="20" height="20" viewBox="0 0 20 20" fill="none" xmlns="http://www.w3.org/2000/svg">
<path d="M10 0C4.477 0 0 4.477 0 10C0 11.89 0.525 13.66 1.438 15.168L0.546 18.2C0.493 18.394 0.524 18.605 0.632 18.776C0.739 18.947 0.914 19.061 1.113 19.087L4.832 19.562C6.34 20.475 8.11 21 10 21C15.523 21 20 16.523 20 11C20 5.477 15.523 0 10 0ZM10 2C14.418 2 18 5.582 18 10C18 14.418 14.418 18 10 18C8.383 18 6.866 17.502 5.596 16.654L5.32 16.491L2.722 16.127L3.386 13.822L3.197 13.525C2.28 12.221 1.75 10.665 1.75 9C1.75 4.582 5.332 1 9.75 1H10V2ZM7.713 6.054C7.582 6.054 7.356 6.101 7.165 6.287C6.974 6.473 6.388 7.023 6.388 8.141C6.388 9.259 7.183 10.341 7.295 10.489C7.407 10.637 8.853 13.032 11.154 13.991C13.104 14.803 13.455 14.661 13.834 14.626C14.213 14.591 15.151 14.076 15.343 13.543C15.535 13.01 15.535 12.56 15.481 12.465C15.427 12.37 15.278 12.316 15.052 12.207C14.826 12.098 13.721 11.548 13.513 11.476C13.305 11.404 13.156 11.368 13.007 11.594C12.858 11.82 12.425 12.316 12.294 12.465C12.163 12.613 12.032 12.631 11.806 12.522C11.58 12.413 10.857 12.179 10.006 11.422C9.343 10.829 8.902 10.097 8.771 9.871C8.64 9.645 8.756 9.524 8.865 9.415C8.963 9.317 9.091 9.16 9.2 9.029C9.309 8.898 9.345 8.803 9.417 8.654C9.489 8.506 9.453 8.375 9.399 8.266C9.345 8.157 8.909 7.048 8.719 6.596C8.529 6.144 8.335 6.209 8.204 6.203C8.073 6.197 7.924 6.196 7.793 6.196L7.713 6.054Z" fill="currentColor"/>
</svg>
